<?xml version="1.0" encoding="UTF-8" standalone="no"?>
<!-- Created with Inkscape (http://www.inkscape.org/) -->

<svg
   version="1.1"
   id="svg1"
   width="3101.3333"
   height="1702.6667"
   viewBox="0 0 3101.3333 1702.6667"
   sodipodi:docname="testes alternativos logo.svg"
   inkscape:version="1.3.2 (091e20e, 2023-11-25, custom)"
   xmlns:inkscape="http://www.inkscape.org/namespaces/inkscape"
   xmlns:sodipodi="http://sodipodi.sourceforge.net/DTD/sodipodi-0.dtd"
   xmlns="http://www.w3.org/2000/svg"
   xmlns:svg="http://www.w3.org/2000/svg">
  <defs
     id="defs1" />
  <sodipodi:namedview
     id="namedview1"
     pagecolor="#505050"
     bordercolor="#eeeeee"
     borderopacity="1"
     inkscape:showpageshadow="0"
     inkscape:pageopacity="0"
     inkscape:pagecheckerboard="0"
     inkscape:deskcolor="#505050"
     inkscape:zoom="0.11309652"
     inkscape:cx="6220.3505"
     inkscape:cy="2126.5022"
     inkscape:window-width="1920"
     inkscape:window-height="1009"
     inkscape:window-x="-8"
     inkscape:window-y="-8"
     inkscape:window-maximized="1"
     inkscape:current-layer="g1" />
  <g
     inkscape:groupmode="layer"
     inkscape:label="Image"
     id="g1">
    <path
       style="fill:#eaf9b2;fill-opacity:1;stroke:none"
       d="m 4327.1473,1660.1977 c 7.7561,17.9993 20.4833,34.5858 31.5453,50.6667 29.4727,42.845 63.6792,82.1362 101.7881,117.4516 196.736,182.3148 486.6385,241.5481 738.6666,149.1441 72.5034,-26.5829 138.7417,-65.0314 200,-111.7748 17.1771,-13.1069 34.0567,-27.5501 49.3333,-42.8209 4.1449,-4.1433 12.9729,-16.7943 19.4341,-16.426 7.2009,0.4105 17.8018,14.2373 23.2326,18.7634 19.6208,16.352 40.0052,31.5975 61.3333,45.6585 57.8514,38.1398 123.4356,64.2238 190.6667,80.1584 243.8732,57.8009 507.1615,-52.2437 640.067,-264.1543 29.8516,-47.5967 53.0775,-99.3019 68.4948,-153.3334 6.4164,-22.4863 14.3103,-45.8693 9.5049,-69.3333 -11.1797,-54.5907 -82.8789,-70.8929 -119.1686,-30.6616 -19.7152,21.8566 -22.2409,58.1243 -31.3424,85.3283 -13.9792,41.7823 -35.2286,81.7224 -61.0918,117.3333 -83.1429,114.4782 -223.2139,192.773 -366.4444,191.6872 -68.1256,-0.5163 -133.5161,-14.3939 -196.0195,-41.5863 -50.9461,-22.1645 -96.9069,-56.3411 -136,-95.4342 -25.0721,-25.0721 -46.0763,-61.8221 -86.6667,-59.7212 -39.0808,2.0228 -56.038,32.5256 -80.1193,58.3878 -31.4383,33.7635 -65.8458,64.4178 -103.8806,90.6327 -120.94,83.3563 -273.6635,118.7404 -418.6667,95.4497 -133.6257,-21.4634 -260.3889,-89.6056 -348.7624,-192.749 -31.3259,-36.5616 -58.2775,-76.0577 -80.7192,-118.6667 -14.6967,-27.9041 -23.1465,-58.3911 -55.8518,-70.0813 -37.9154,-13.5526 -65.2348,11 -94.6666,30.5247 -23.8968,15.8529 -49.5724,29.2344 -76,40.3241 -92.4383,38.7894 -196.6422,44.9272 -293.3333,19.3868 -71.5014,-18.8867 -137.2974,-56.2206 -192,-105.714 -34.1033,-30.8557 -61.9354,-81.5567 -116,-65.0545 -43.0142,13.1293 -61.1726,66.5847 -37.213,103.9475 15.4137,24.0363 38.8049,45.2578 59.8796,64.2254 35.4882,31.9398 73.9414,60.5622 116,83.3631 131.0087,71.0227 287.2744,92.0929 432,55.9115 53.7029,-13.4257 103.1967,-35.1549 152,-60.8333 z"
       id="path16"
       inkscape:export-filename="path16.png"
       inkscape:export-xdpi="96"
       inkscape:export-ydpi="96" />
    <path
       style="fill:#674be7;stroke:none"
       d="m 4661.814,909.53102 c -4.9861,-13.6805 -1.3333,-30.8164 -1.3333,-45.33333 0,-5.72656 1.2797,-13.47136 -2.3231,-18.38167 -5.5968,-7.62802 -17.4782,-5.61833 -25.6769,-5.61833 h -53.3334 c -10.9939,7.3e-4 -21.2923,0.56575 -26.3816,12.00106 -5.2635,11.82649 -5.4414,27.28776 -7.3138,39.99894 -3.4707,23.56071 -7.1914,47.07601 -10.4784,70.66667 -10.5319,75.58784 -20.6944,151.24234 -32.392,226.66664 -4.9041,31.6211 -10.9228,63.1026 -16.2161,94.6667 -1.8008,10.7388 -7.9178,27.25 -1.7654,37.2602 5.2724,8.5786 16.5931,6.7398 25.214,6.7398 h 54.6667 c 8.3248,0 18.8357,1.6758 26.6615,-1.6379 11.251,-4.7641 12.8043,-17.0666 14.5648,-27.6954 l 11.7778,-72.0001 c 13.006,-78.036 17.9233,-157.7705 72.7099,-220 30.0284,-34.10777 80.972,-58.18378 126.286,-40.23244 44.8644,17.77319 33.9047,62.60844 28.3621,100.23244 -8.1213,55.1269 -16.6029,110.2054 -24.7243,165.3334 -3.7848,25.6919 -13.6447,56.7296 -10.0524,82.6667 1.2863,9.2873 8.3906,13.083 17.0812,13.3138 22.1887,0.5891 44.4696,0.019 66.6667,0.019 9.4277,0 21.3913,1.9477 29.1934,-4.5586 12.9347,-10.7865 11.5431,-38.6834 14.0206,-54.1081 8.1773,-50.9089 14.4406,-102.2207 21.1615,-153.3333 2.4569,-18.6854 5.1972,-37.3335 7.7983,-56 10.0051,-71.80108 35.5557,-172.60157 -44.1738,-214.95786 -11.4637,-6.09008 -23.3102,-10.65055 -36,-13.4886 -17.4906,-3.91171 -36.8071,-5.02694 -54.6667,-3.32723 -25.6552,2.44157 -50.3225,7.77954 -74.6666,16.2325 -22.7305,7.89266 -44.3047,20.38729 -62.6667,35.90739 -10.6841,9.03052 -20.0544,21.91667 -32,28.96712"
       id="path15" />
    <path
       style="fill:#674be7;stroke:none"
       d="m 4383.1473,828.90863 c -15.8796,3.86108 -16.6107,22.10848 -18.7737,35.28906 -5.8965,35.93189 -10.8784,72.01823 -16.4588,108 -13.5765,87.53911 -28.6059,174.94491 -40.9413,262.66661 -2.8805,20.4843 -6.4262,40.9088 -9.7069,61.3334 -1.343,8.3614 -4.3058,19.0119 1.4846,26.3817 5.9191,7.5333 17.3065,5.6183 25.7294,5.6183 23.66,0 54.4647,5.2654 77.3334,-0.7438 15.5868,-4.0958 16.2061,-22.206 18.3384,-35.2562 5.9424,-36.3692 10.4676,-72.9686 16.4353,-109.3334 14.1142,-86.0083 26.2196,-172.4383 38.9218,-258.66661 3.1448,-21.34831 6.5829,-42.65373 9.7428,-64 1.2212,-8.24943 4.3494,-19.27889 -1.4568,-26.48869 -6.0191,-7.4742 -17.5048,-5.51131 -25.9815,-5.51131 -23.1318,0 -52.1971,-4.75244 -74.6667,0.71094"
       id="path14" />
    <path
       style="fill:#674be7;stroke:none"
       d="m 3593.814,664.88909 c -21.1436,4.62093 -19.8365,32.8409 -22.3056,49.97526 -4.9325,34.23088 -10.3306,68.40308 -15.0277,102.66667 -1.5936,11.62451 -0.8607,34.15218 -7.8107,43.69548 -4.9967,6.861 -18.1433,4.30452 -25.5227,4.30452 -19.2087,0 -47.2411,-5.16105 -65.3323,1.51131 -10.1444,3.74146 -13.3082,12.6473 -14.9959,22.48869 -3.2406,18.89714 -6.9324,38.25383 -8.7788,57.33334 -3.596,37.15967 45.9799,24.03931 70.4404,24 7.6624,-0.0123 25.5003,-4.82161 27.3498,6.69238 1.0456,6.50961 -2.0337,14.83178 -2.9877,21.30758 -2.5567,17.35588 -5.7454,34.62858 -8.1883,51.99998 -8.5113,60.5253 -18.4584,121.0424 -28.5031,181.3334 -3.6189,21.7217 -7.3411,43.5175 -10.3374,65.3333 -1.0023,7.298 -3.7709,18.5601 0.9897,25.0484 5.5969,7.628 17.4783,5.6183 25.677,5.6183 24.6618,0 53.0774,3.9406 77.3333,-0.4393 10.2179,-1.8451 15.1581,-10.0256 16.9846,-19.5607 3.9613,-20.6805 6.601,-41.8121 9.5082,-62.6667 12.1295,-87.0094 23.5594,-174.8863 39.1749,-261.3333 2.9064,-16.08977 17.28,-13.33334 30.3323,-13.33334 24.0918,0 75.2187,11.0542 81.5905,-20 4.1267,-20.11206 7.5253,-40.95687 10.0278,-61.33334 1.0176,-8.28572 1.003,-17.94995 -7.6389,-22.08846 -6.6529,-3.18603 -15.4925,-1.91154 -22.6461,-1.91154 h -46.6666 c -6.2339,0 -21.5649,2.85059 -24.713,-4.19751 -4.1279,-9.24178 2.9906,-29.97762 4.606,-39.80249 5.6921,-34.62036 10.4918,-69.38664 16.214,-104 2.0475,-12.38583 11.8677,-40.69963 -0.2521,-49.72942 -12.2225,-9.10628 -41.211,-3.60392 -55.8549,-3.60392 -13.5769,0 -29.3759,-2.2133 -42.6667,0.69141"
       id="path13" />
    <path
       style="fill:#eaf9b2;fill-opacity:1;stroke:none"
       d="m 4471.1473,576.76457 c -47.1297,6.4152 -92.5059,40.16146 -105.1265,87.43311 -16.6468,62.35319 29.0983,127.7557 97.1265,119.61931 49.6333,-5.93628 95.7186,-42.1766 108.1399,-91.61931 15.8084,-62.92497 -33.5572,-124.49626 -100.1399,-115.43311"
       id="path12" />
    <path
       style="fill:#674be7;stroke:none"
       d="m 5496.4806,1249.531 c 17.2448,18.7785 31.9532,37.3578 53.3334,51.9619 50.5828,34.5516 121.2833,43.8547 178.6666,21.6235 19.0772,-7.3908 36.9994,-18.4221 52,-32.3714 4.771,-4.4366 14.2307,-18.4733 21.1944,-18.4733 5.8299,0 12.8509,15.8007 16.3323,19.9209 12.2567,14.5051 27.6013,24.4686 45.14,31.4053 58.0734,22.9684 124.5244,5.7705 172,-32 17.9409,-14.2733 30.646,-31.5124 45.3333,-48.7336 13.4367,26.3197 42.9405,47.5525 68,61.8951 81.5173,46.6552 196.1602,46.0068 276,-3.7953 132.0283,-82.3559 144.5306,-297.3331 37.2142,-404.64711 -119.0449,-119.04224 -337.7191,-77.19157 -405.3983,75.8807 -18.8403,42.61191 -25.5379,90.98211 -22.3632,137.33331 1.7796,25.9827 10.9378,51.2932 5.9331,77.3333 -5.4797,28.5122 -36.8534,46.3027 -63.3858,50.7727 -12.1048,2.0393 -25.1769,2.3067 -34.5411,-6.9125 -11.6078,-11.4279 -9.7089,-26.4687 -9.4629,-41.1935 0.604,-36.1619 6.9677,-73.4656 11.6285,-109.3333 15.2403,-117.28305 29.3311,-234.72885 44.751,-352.00002 4.5567,-34.65324 8.8185,-69.34229 13.3334,-104 2.4684,-18.9489 8.4127,-40.99659 4.0504,-60 -8.0088,-34.88835 -54.7558,-37.11931 -83.0926,-32.93409 -16.936,2.5013 -37.9251,8.96419 -48.1276,23.60173 -14.0387,20.14127 -13.2002,45.87874 -16.2479,69.33236 -6.1642,47.43783 -11.6444,95.09953 -16.7366,142.66667 -1.6197,15.12826 -3.7128,30.20549 -5.3334,45.33334 -0.6396,5.97046 -0.086,14.69336 -3.8776,19.69547 -7.2934,9.62134 -37.7038,-2.02514 -48.3436,-3.31478 -41.0001,-4.96948 -85.6722,-1.90397 -125.3333,9.91358 -125.8078,37.48617 -192.8945,153.05946 -195.9805,279.03904 -0.7192,29.3637 7.9012,54.3319 11.6431,82.6667 0.9313,7.052 -4.5823,14.516 -8.4228,20 -12.731,18.1793 -33.107,27.5146 -55.2398,23.5627 -28.6439,-5.1144 -26.6172,-36.2131 -23.429,-58.2294 7.7744,-53.6889 20.9306,-114.602 -23.2429,-157.2808 -17.1547,-16.5744 -41.5001,-26.116 -65.3281,-26.6997 -4.1985,-0.1028 -20.987,2.8612 -20.8724,-4.04928 0.1281,-7.7281 21.8011,-18.86822 27.5391,-23.13067 29.2114,-21.69996 58.6011,-43.19174 88,-64.63786 9.7707,-7.12753 39.0291,-22.20207 23.6955,-37.16464 -5.8716,-5.72941 -16.1662,-6.80924 -23.6955,-9.26335 -19.0257,-6.20117 -38.2251,-11.87085 -57.3333,-17.8077 -8.0002,-2.48559 -18.66,-8.03133 -26.6472,-2.97623 -9.07,5.74048 -15.3314,18.4755 -21.5545,27.01025 -14.5417,19.9432 -29.0819,39.90324 -43.4105,60.00001 -13.0529,18.30737 -26.1784,36.59057 -39.5493,54.66667 -2.8459,3.84732 -11.2371,19.3142 -17.3664,12.83132 -4.3297,-4.5797 -0.6203,-15.37039 0.1667,-20.83133 2.8169,-19.54939 5.6787,-39.09847 8.3612,-58.66666 7.4362,-54.24504 15.284,-108.43694 22.8404,-162.66668 3.1853,-22.85881 12.4926,-51.72762 8.8746,-74.66667 -1.5017,-9.52083 -10.4519,-15.46875 -19.715,-15.82308 -24.301,-0.92944 -51.8978,6.6556 -76,10.12866 -9.0943,1.31047 -20.7045,1.15471 -27.2562,8.64608 -8.0907,9.25098 -7.4296,26.79142 -9.2912,38.38168 -5.2673,32.79191 -9.6701,65.77694 -14.2931,98.66667 -16.8815,120.09798 -35.5013,239.96021 -52.7984,360.00001 -5.3169,36.8985 -11.0425,73.744 -16.1873,110.6667 -2.0845,14.9598 -2.5052,32.921 17.1595,34.5421 24.5456,2.0235 50.0324,0.1245 74.6667,0.1245 9.8252,0 21.5953,1.3325 28.7747,-6.9187 10.1634,-11.6806 9.3102,-39.5542 11.3991,-54.4146 4.8758,-34.6874 10.047,-69.4343 15.7191,-104 2.6105,-15.9085 2.5076,-34.7367 9.8087,-49.3334 10.3721,-20.7362 40.3581,-38.2996 63.6317,-37.2788 29.7809,1.3063 35.7414,37.6586 32.9526,61.2788 -5.9095,50.0541 -21.5421,107.9997 9.0741,153.3334 15.5397,23.0098 41.8909,35.5979 68.6399,40.1059 63.9364,10.7754 123.982,-18.8374 152,-78.7726 m 250.6667,-340.95311 c 20.3101,-2.4292 58.3888,-1.87215 69.9557,18.2911 5.1787,9.02742 3.21,19.54134 2.1112,29.3282 -2.3481,20.91415 -5.1136,41.77763 -7.6873,62.66661 -6.585,53.4448 -4.5376,116.334 -31.8177,164 -16.6679,29.1234 -40.4415,52.4496 -75.2286,55.7737 -64.7906,6.1912 -97.729,-57.8776 -94.928,-114.4403 3.6518,-73.7465 19.0246,-170.35076 94.928,-204.44654 13.5806,-6.10034 27.9239,-9.40951 42.6667,-11.17277 m 524,28 c 61.5716,-7.36418 109.0765,35.00456 126.3932,91.61931 24.5277,80.1902 -10.2327,184.709 -102.3932,195.6193 -59.6491,7.0614 -109.2256,-35.3797 -126.6286,-90.286 -24.9461,-78.7053 11.9733,-186.10992 102.6286,-196.95261"
       id="path11" />
    <path
       style="fill:#674be7;stroke:none"
       d="m 3965.814,928.19769 c -2.6051,-10.97241 0.9518,-22.37077 2.4928,-33.33333 2.9386,-20.9065 5.9814,-41.83326 9.4002,-62.66667 10.747,-65.49138 19.0938,-131.462 26.9804,-197.33334 2.7659,-23.10141 5.2529,-46.37094 9.0196,-69.33334 1.3688,-8.34489 4.404,-23.05502 -0.8827,-30.48861 -5.2494,-7.38102 -16.5018,-5.51139 -24.3436,-5.51139 -23.3002,0 -51.9711,-4.54069 -74.6667,0.70573 -17.7832,4.11084 -17.4333,21.96256 -19.4352,36.6276 -5.0861,37.2583 -8.2038,74.75586 -13.3333,112.00001 -21.8955,158.97551 -44.8961,317.65347 -71.1245,475.99995 -7.2203,43.5902 -14.9148,87.0909 -22.2222,130.6667 -2.089,12.457 -10.6527,37.96 7.4495,42.141 22.9714,5.3055 52.3992,0.5257 75.999,0.5257 9.3647,0 20.4088,1.5609 27.715,-5.6327 7.0079,-6.8999 7.5301,-18.5359 9.0669,-27.7006 3.5743,-21.3143 6.8613,-42.6819 10.4362,-64.0001 12.6174,-75.2407 16.3278,-155.9782 67.3426,-217.3333 22.5907,-27.16957 49.7211,-47.23166 85.4393,-51.6183 30.6966,-3.76994 68.058,6.02791 76.6955,39.6183 4.4118,17.1569 0.1323,34.871 -2.391,52 -8.7111,59.1358 -17.9552,118.1961 -26.6666,177.3333 -4.0506,27.497 -12.9686,57.3995 -10.1646,85.3323 1.2693,12.6449 12.5707,12.0011 22.5267,12.0011 h 60 c 8.7794,0 20.08,1.8425 27.9794,-2.786 10.4527,-6.1245 10.9981,-19.846 12.5823,-30.5473 3.8144,-25.7683 7.6695,-51.5321 11.2645,-77.3334 7.922,-56.8568 14.6076,-113.9334 23.4063,-170.6667 9.0441,-58.31528 22.5274,-116.74921 -27.2325,-161.10183 -54.0724,-48.19654 -149.2125,-36.14665 -208,-4.19336 -23.5987,12.82682 -42.0792,34.58081 -65.3333,46.62858"
       id="path10" />
    <path
       style="fill:#eaf9b2;fill-opacity:1;stroke:none"
       d="m 4807.1473,319.54955 c -84.3668,5.30046 -160.7047,56.38965 -189.7438,137.98145 -27.7188,77.88233 0.4838,171.01547 83.0772,200.41049 22.5678,8.03199 46.8267,10.43775 70.6666,8.80355 90.6625,-6.21468 169.1309,-82.53727 184.715,-170.54737 16.0637,-90.71713 -52.442,-182.69646 -148.715,-176.64812"
       id="path1" />
    <path
       style="fill:#674be7;fill-opacity:1;stroke:none"
       d="m 4283.3816,3660.915 c 7.7561,17.9993 20.4833,34.5858 31.5453,50.6667 29.4727,42.845 63.6792,82.1362 101.7881,117.4516 196.736,182.3148 486.6385,241.5481 738.6666,149.1441 72.5034,-26.5829 138.7417,-65.0314 200,-111.7748 17.1771,-13.1069 34.0567,-27.5501 49.3333,-42.8209 4.1449,-4.1433 12.9729,-16.7943 19.4341,-16.426 7.2009,0.4105 17.8018,14.2373 23.2326,18.7634 19.6208,16.352 40.0052,31.5975 61.3333,45.6585 57.8514,38.1398 123.4356,64.2238 190.6667,80.1584 243.8732,57.8009 507.1615,-52.2437 640.067,-264.1543 29.8516,-47.5967 53.0775,-99.3019 68.4948,-153.3334 6.4164,-22.4863 14.3103,-45.8693 9.5049,-69.3333 -11.1797,-54.5907 -82.8789,-70.8929 -119.1686,-30.6616 -19.7152,21.8566 -22.2409,58.1243 -31.3424,85.3283 -13.9792,41.7823 -35.2286,81.7224 -61.0918,117.3333 -83.1429,114.4782 -223.2139,192.773 -366.4444,191.6872 -68.1256,-0.5163 -133.5161,-14.3939 -196.0195,-41.5863 -50.9461,-22.1645 -96.9069,-56.3411 -136,-95.4342 -25.0721,-25.0721 -46.0763,-61.8221 -86.6667,-59.7212 -39.0808,2.0228 -56.038,32.5256 -80.1193,58.3878 -31.4383,33.7635 -65.8458,64.4178 -103.8806,90.6327 -120.94,83.3563 -273.6635,118.7404 -418.6667,95.4497 -133.6257,-21.4634 -260.3889,-89.6056 -348.7624,-192.749 -31.3259,-36.5616 -58.2775,-76.0577 -80.7192,-118.6667 -14.6967,-27.9041 -23.1465,-58.3911 -55.8518,-70.0813 -37.9154,-13.5526 -65.2348,11 -94.6666,30.5247 -23.8968,15.8529 -49.5724,29.2344 -76,40.3241 -92.4383,38.7894 -196.6422,44.9272 -293.3333,19.3868 -71.5014,-18.8867 -137.2974,-56.2206 -192,-105.714 -34.1033,-30.8557 -61.9354,-81.5567 -116,-65.0545 -43.0142,13.1293 -61.1726,66.5847 -37.213,103.9475 15.4137,24.0363 38.8049,45.2578 59.8796,64.2254 35.4882,31.9398 73.9414,60.5622 116,83.3631 131.0087,71.0227 287.2744,92.0929 432,55.9115 53.7029,-13.4257 103.1967,-35.1549 152,-60.8333 z"
       id="path17"
       inkscape:export-filename="path17.png"
       inkscape:export-xdpi="96"
       inkscape:export-ydpi="96" />
    <path
       style="fill:#eaf9b2;stroke:none;fill-opacity:1"
       d="m 4618.0483,2910.2484 c -4.9861,-13.6805 -1.3333,-30.8164 -1.3333,-45.3334 0,-5.7265 1.2797,-13.4713 -2.3231,-18.3816 -5.5968,-7.6281 -17.4782,-5.6184 -25.6769,-5.6184 h -53.3334 c -10.9939,8e-4 -21.2923,0.5658 -26.3816,12.0011 -5.2635,11.8265 -5.4414,27.2877 -7.3138,39.9989 -3.4707,23.5607 -7.1914,47.076 -10.4784,70.6667 -10.5319,75.5878 -20.6944,151.2423 -32.392,226.6666 -4.9041,31.6211 -10.9228,63.1026 -16.2161,94.6667 -1.8008,10.7388 -7.9178,27.25 -1.7654,37.2602 5.2724,8.5786 16.5931,6.7398 25.214,6.7398 h 54.6667 c 8.3248,0 18.8357,1.6758 26.6615,-1.6379 11.251,-4.7641 12.8043,-17.0666 14.5648,-27.6954 l 11.7778,-72.0001 c 13.006,-78.036 17.9233,-157.7705 72.7099,-220 30.0284,-34.1077 80.972,-58.1837 126.286,-40.2324 44.8644,17.7732 33.9047,62.6084 28.3621,100.2324 -8.1213,55.1269 -16.6029,110.2054 -24.7243,165.3334 -3.7848,25.6919 -13.6447,56.7296 -10.0524,82.6667 1.2863,9.2873 8.3906,13.083 17.0812,13.3138 22.1887,0.5891 44.4696,0.019 66.6667,0.019 9.4277,0 21.3913,1.9477 29.1934,-4.5586 12.9347,-10.7865 11.5431,-38.6834 14.0206,-54.1081 8.1773,-50.9089 14.4406,-102.2207 21.1615,-153.3333 2.4569,-18.6854 5.1972,-37.3335 7.7983,-56 10.0051,-71.801 35.5557,-172.6015 -44.1738,-214.9578 -11.4637,-6.0901 -23.3102,-10.6506 -36,-13.4886 -17.4906,-3.9117 -36.8071,-5.027 -54.6667,-3.3273 -25.6552,2.4416 -50.3225,7.7796 -74.6666,16.2325 -22.7305,7.8927 -44.3047,20.3873 -62.6667,35.9074 -10.6841,9.0306 -20.0544,21.9167 -32,28.9672"
       id="path18" />
    <path
       style="fill:#eaf9b2;stroke:none;fill-opacity:1"
       d="m 4339.3816,2829.626 c -15.8796,3.861 -16.6107,22.1084 -18.7737,35.289 -5.8965,35.9319 -10.8784,72.0183 -16.4588,108 -13.5765,87.5391 -28.6059,174.9449 -40.9413,262.6666 -2.8805,20.4843 -6.4262,40.9088 -9.7069,61.3334 -1.343,8.3614 -4.3058,19.0119 1.4846,26.3817 5.9191,7.5333 17.3065,5.6183 25.7294,5.6183 23.66,0 54.4647,5.2654 77.3334,-0.7438 15.5868,-4.0958 16.2061,-22.206 18.3384,-35.2562 5.9424,-36.3692 10.4676,-72.9686 16.4353,-109.3334 14.1142,-86.0083 26.2196,-172.4383 38.9218,-258.6666 3.1448,-21.3483 6.5829,-42.6537 9.7428,-64 1.2212,-8.2494 4.3494,-19.2789 -1.4568,-26.4887 -6.0191,-7.4742 -17.5048,-5.5113 -25.9815,-5.5113 -23.1318,0 -52.1971,-4.7524 -74.6667,0.711"
       id="path19" />
    <path
       style="fill:#eaf9b2;stroke:none;fill-opacity:1"
       d="m 3550.0483,2665.6064 c -21.1436,4.621 -19.8365,32.8409 -22.3056,49.9753 -4.9325,34.2309 -10.3306,68.4031 -15.0277,102.6667 -1.5936,11.6245 -0.8607,34.1521 -7.8107,43.6954 -4.9967,6.861 -18.1433,4.3046 -25.5227,4.3046 -19.2087,0 -47.2411,-5.1611 -65.3323,1.5113 -10.1444,3.7414 -13.3082,12.6473 -14.9959,22.4887 -3.2406,18.8971 -6.9324,38.2538 -8.7788,57.3333 -3.596,37.1597 45.9799,24.0393 70.4404,24 7.6624,-0.012 25.5003,-4.8216 27.3498,6.6924 1.0456,6.5096 -2.0337,14.8318 -2.9877,21.3076 -2.5567,17.3558 -5.7454,34.6285 -8.1883,51.9999 -8.5113,60.5253 -18.4584,121.0424 -28.5031,181.3334 -3.6189,21.7217 -7.3411,43.5175 -10.3374,65.3333 -1.0023,7.298 -3.7709,18.5601 0.9897,25.0484 5.5969,7.628 17.4783,5.6183 25.677,5.6183 24.6618,0 53.0774,3.9406 77.3333,-0.4393 10.2179,-1.8451 15.1581,-10.0256 16.9846,-19.5607 3.9613,-20.6805 6.601,-41.8121 9.5082,-62.6667 12.1295,-87.0094 23.5594,-174.8863 39.1749,-261.3333 2.9064,-16.0897 17.28,-13.3333 30.3323,-13.3333 24.0918,0 75.2187,11.0542 81.5905,-20 4.1267,-20.1121 7.5253,-40.9569 10.0278,-61.3333 1.0176,-8.2858 1.003,-17.95 -7.6389,-22.0885 -6.6529,-3.186 -15.4925,-1.9115 -22.6461,-1.9115 h -46.6666 c -6.2339,0 -21.5649,2.8505 -24.713,-4.1976 -4.1279,-9.2417 2.9906,-29.9776 4.606,-39.8024 5.6921,-34.6204 10.4918,-69.3867 16.214,-104 2.0475,-12.3859 11.8677,-40.6997 -0.2521,-49.7295 -12.2225,-9.1062 -41.211,-3.6039 -55.8549,-3.6039 -13.5769,0 -29.3759,-2.2133 -42.6667,0.6914"
       id="path20" />
    <path
       style="fill:#674be7;fill-opacity:1;stroke:none"
       d="m 4427.3816,2577.4819 c -47.1297,6.4152 -92.5059,40.1615 -105.1265,87.4331 -16.6468,62.3532 29.0983,127.7557 97.1265,119.6193 49.6333,-5.9363 95.7186,-42.1766 108.1399,-91.6193 15.8084,-62.925 -33.5572,-124.4962 -100.1399,-115.4331"
       id="path21" />
    <path
       style="fill:#eaf9b2;stroke:none;fill-opacity:1"
       d="m 5452.7149,3250.2483 c 17.2448,18.7785 31.9532,37.3578 53.3334,51.9619 50.5828,34.5516 121.2833,43.8547 178.6666,21.6235 19.0772,-7.3908 36.9994,-18.4221 52,-32.3714 4.771,-4.4366 14.2307,-18.4733 21.1944,-18.4733 5.8299,0 12.8509,15.8007 16.3323,19.9209 12.2567,14.5051 27.6013,24.4686 45.14,31.4053 58.0734,22.9684 124.5244,5.7705 172,-32 17.9409,-14.2733 30.646,-31.5124 45.3333,-48.7336 13.4367,26.3197 42.9405,47.5525 68,61.8951 81.5173,46.6552 196.1602,46.0068 276,-3.7953 132.0283,-82.3559 144.5306,-297.3331 37.2142,-404.6471 -119.0449,-119.0422 -337.7191,-77.1915 -405.3983,75.8807 -18.8403,42.6119 -25.5379,90.9821 -22.3632,137.3333 1.7796,25.9827 10.9378,51.2932 5.9331,77.3333 -5.4797,28.5122 -36.8534,46.3027 -63.3858,50.7727 -12.1048,2.0393 -25.1769,2.3067 -34.5411,-6.9125 -11.6078,-11.4279 -9.7089,-26.4687 -9.4629,-41.1935 0.604,-36.1619 6.9677,-73.4656 11.6285,-109.3333 15.2403,-117.283 29.3311,-234.7288 44.751,-352 4.5567,-34.6532 8.8185,-69.3423 13.3334,-104 2.4684,-18.9489 8.4127,-40.9966 4.0504,-60 -8.0088,-34.8883 -54.7558,-37.1193 -83.0926,-32.9341 -16.936,2.5013 -37.9251,8.9642 -48.1276,23.6018 -14.0387,20.1412 -13.2002,45.8787 -16.2479,69.3323 -6.1642,47.4378 -11.6444,95.0995 -16.7366,142.6667 -1.6197,15.1282 -3.7128,30.2055 -5.3334,45.3333 -0.6396,5.9705 -0.086,14.6934 -3.8776,19.6955 -7.2934,9.6213 -37.7038,-2.0251 -48.3436,-3.3148 -41.0001,-4.9695 -85.6722,-1.904 -125.3333,9.9136 -125.8078,37.4862 -192.8945,153.0595 -195.9805,279.039 -0.7192,29.3637 7.9012,54.3319 11.6431,82.6667 0.9313,7.052 -4.5823,14.516 -8.4228,20 -12.731,18.1793 -33.107,27.5146 -55.2398,23.5627 -28.6439,-5.1144 -26.6172,-36.2131 -23.429,-58.2294 7.7744,-53.6889 20.9306,-114.602 -23.2429,-157.2808 -17.1547,-16.5744 -41.5001,-26.116 -65.3281,-26.6997 -4.1985,-0.1028 -20.987,2.8612 -20.8724,-4.0492 0.1281,-7.7281 21.8011,-18.8683 27.5391,-23.1307 29.2114,-21.7 58.6011,-43.1918 88,-64.6379 9.7707,-7.1275 39.0291,-22.202 23.6955,-37.1646 -5.8716,-5.7294 -16.1662,-6.8093 -23.6955,-9.2634 -19.0257,-6.2011 -38.2251,-11.8708 -57.3333,-17.8077 -8.0002,-2.4856 -18.66,-8.0313 -26.6472,-2.9762 -9.07,5.7405 -15.3314,18.4755 -21.5545,27.0103 -14.5417,19.9432 -29.0819,39.9032 -43.4105,60 -13.0529,18.3073 -26.1784,36.5905 -39.5493,54.6666 -2.8459,3.8474 -11.2371,19.3142 -17.3664,12.8314 -4.3297,-4.5797 -0.6203,-15.3704 0.1667,-20.8314 2.8169,-19.5494 5.6787,-39.0984 8.3612,-58.6666 7.4362,-54.2451 15.284,-108.437 22.8404,-162.6667 3.1853,-22.8588 12.4926,-51.7276 8.8746,-74.6667 -1.5017,-9.5208 -10.4519,-15.4687 -19.715,-15.8231 -24.301,-0.9294 -51.8978,6.6556 -76,10.1287 -9.0943,1.3105 -20.7045,1.1547 -27.2562,8.6461 -8.0907,9.251 -7.4296,26.7914 -9.2912,38.3817 -5.2673,32.7919 -9.6701,65.7769 -14.2931,98.6666 -16.8815,120.098 -35.5013,239.9602 -52.7984,360 -5.3169,36.8985 -11.0425,73.744 -16.1873,110.6667 -2.0845,14.9598 -2.5052,32.921 17.1595,34.5421 24.5456,2.0235 50.0324,0.1245 74.6667,0.1245 9.8252,0 21.5953,1.3325 28.7747,-6.9187 10.1634,-11.6806 9.3102,-39.5542 11.3991,-54.4146 4.8758,-34.6874 10.047,-69.4343 15.7191,-104 2.6105,-15.9085 2.5076,-34.7367 9.8087,-49.3334 10.3721,-20.7362 40.3581,-38.2996 63.6317,-37.2788 29.7809,1.3063 35.7414,37.6586 32.9526,61.2788 -5.9095,50.0541 -21.5421,107.9997 9.0741,153.3334 15.5397,23.0098 41.8909,35.5979 68.6399,40.1059 63.9364,10.7754 123.982,-18.8374 152,-78.7726 m 250.6667,-340.9531 c 20.3101,-2.4292 58.3888,-1.8721 69.9557,18.2911 5.1787,9.0274 3.21,19.5414 2.1112,29.3282 -2.3481,20.9142 -5.1136,41.7777 -7.6873,62.6666 -6.585,53.4448 -4.5376,116.334 -31.8177,164 -16.6679,29.1234 -40.4415,52.4496 -75.2286,55.7737 -64.7906,6.1912 -97.729,-57.8776 -94.928,-114.4403 3.6518,-73.7465 19.0246,-170.3507 94.928,-204.4465 13.5806,-6.1003 27.9239,-9.4095 42.6667,-11.1728 m 524,28 c 61.5716,-7.3642 109.0765,35.0046 126.3932,91.6193 24.5277,80.1902 -10.2327,184.709 -102.3932,195.6193 -59.6491,7.0614 -109.2256,-35.3797 -126.6286,-90.286 -24.9461,-78.7053 11.9733,-186.1099 102.6286,-196.9526"
       id="path22" />
    <path
       style="fill:#eaf9b2;stroke:none;fill-opacity:1"
       d="m 3922.0483,2928.915 c -2.6051,-10.9724 0.9518,-22.3707 2.4928,-33.3333 2.9386,-20.9065 5.9814,-41.8333 9.4002,-62.6667 10.747,-65.4914 19.0938,-131.462 26.9804,-197.3333 2.7659,-23.1014 5.2529,-46.371 9.0196,-69.3334 1.3688,-8.3448 4.404,-23.055 -0.8827,-30.4886 -5.2494,-7.381 -16.5018,-5.5114 -24.3436,-5.5114 -23.3002,0 -51.9711,-4.5406 -74.6667,0.7058 -17.7832,4.1108 -17.4333,21.9625 -19.4352,36.6276 -5.0861,37.2583 -8.2038,74.7558 -13.3333,112 -21.8955,158.9755 -44.8961,317.6535 -71.1245,475.9999 -7.2203,43.5902 -14.9148,87.0909 -22.2222,130.6667 -2.089,12.457 -10.6527,37.96 7.4495,42.141 22.9714,5.3055 52.3992,0.5257 75.999,0.5257 9.3647,0 20.4088,1.5609 27.715,-5.6327 7.0079,-6.8999 7.5301,-18.5359 9.0669,-27.7006 3.5743,-21.3143 6.8613,-42.6819 10.4362,-64.0001 12.6174,-75.2407 16.3278,-155.9782 67.3426,-217.3333 22.5907,-27.1695 49.7211,-47.2316 85.4393,-51.6183 30.6966,-3.7699 68.058,6.0279 76.6955,39.6183 4.4118,17.1569 0.1323,34.871 -2.391,52 -8.7111,59.1358 -17.9552,118.1961 -26.6666,177.3333 -4.0506,27.497 -12.9686,57.3995 -10.1646,85.3323 1.2693,12.6449 12.5707,12.0011 22.5267,12.0011 h 60 c 8.7794,0 20.08,1.8425 27.9794,-2.786 10.4527,-6.1245 10.9981,-19.846 12.5823,-30.5473 3.8144,-25.7683 7.6695,-51.5321 11.2645,-77.3334 7.922,-56.8568 14.6076,-113.9334 23.4063,-170.6667 9.0441,-58.3152 22.5274,-116.7492 -27.2325,-161.1018 -54.0724,-48.1965 -149.2125,-36.1466 -208,-4.1934 -23.5987,12.8269 -42.0792,34.5809 -65.3333,46.6286"
       id="path23" />
    <path
       style="fill:#674be7;fill-opacity:1;stroke:none"
       d="m 4763.3816,2320.2669 c -84.3668,5.3004 -160.7047,56.3896 -189.7438,137.9814 -27.7188,77.8824 0.4838,171.0155 83.0772,200.4105 22.5678,8.032 46.8267,10.4378 70.6666,8.8036 90.6625,-6.2147 169.1309,-82.5373 184.715,-170.5474 16.0637,-90.7171 -52.442,-182.6965 -148.715,-176.6481"
       id="path24" />
  </g>
</svg>
